Coordinates
version=1
nRows=4
nColumns=63
inDegrees=yes

Units are S.I. units (second, meters, Newtons, ...)
If the header above contains a line with 'inDegrees', this indicates whether rotational values are in degrees (yes) or radians (no).

endheader
time	pelvis_tilt	pelvis_list	pelvis_rotation	pelvis_tx	pelvis_ty	pelvis_tz	hip_flexion_r	hip_adduction_r	hip_rotation_r	knee_angle_r	knee_angle_r_beta	ankle_angle_r	subtalar_angle_r	mtp_angle_r	hip_flexion_l	hip_adduction_l	hip_rotation_l	knee_angle_l	knee_angle_l_beta	ankle_angle_l	subtalar_angle_l	mtp_angle_l	L5_S1_Flex_Ext	L5_S1_Lat_Bending	L5_S1_axial_rotation	L4_L5_Flex_Ext	L4_L5_Lat_Bending	L4_L5_axial_rotation	L3_L4_Flex_Ext	L3_L4_Lat_Bending	L3_L4_axial_rotation	L2_L3_Flex_Ext	L2_L3_Lat_Bending	L2_L3_axial_rotation	L1_L2_Flex_Ext	L1_L2_Lat_Bending	L1_L2_axial_rotation	L1_T12_Flex_Ext	L1_T12_Lat_Bending	L1_T12_axial_rotation	Abs_r3	Abs_r2	Abs_r1	Abs_t1	Abs_t2	neck_flexion	neck_bending	neck_rotation	arm_flex_r	arm_add_r	arm_rot_r	elbow_flex_r	pro_sup_r	wrist_flex_r	wrist_dev_r	arm_flex_l	arm_add_l	arm_rot_l	elbow_flex_l	pro_sup_l	wrist_flex_l	wrist_dev_l
      0.00000000	     -2.56325932	     -4.03026760	     87.01812348	      0.22870987	      0.76074020	      0.70432107	      4.19080913	     -2.64268931	    -15.05980574	     10.32989770	      0.18029073	     23.77586919	     17.55970836	      0.00000000	      3.67611187	      1.48624126	      7.53413248	      9.22542314	      0.16101401	      7.92280516	    -17.05659793	      0.00000000	      0.05273647	     -0.25820518	     -0.35555658	      0.09793691	     -0.34341290	     -0.37777887	      0.08664075	     -0.62780009	     -0.37777887	      0.06027252	     -0.62780009	     -0.31111201	      0.04897109	     -0.52653201	     -0.28888972	      0.03013362	     -0.39995983	     -0.26666744	      0.37669137	     -2.92086869	     -1.97749905	      0.00000000	      0.00000000	     12.07410152	      1.78036314	      1.46362083	     26.34506370	    -28.45845417	     75.54470950	    104.23427379	     47.84345067	      1.68831785	     20.72021758	     18.76197300	    -35.82261751	     59.09770596	    108.02380919	     85.30848927	      4.76315202	     14.14230994
      0.01666667	     -2.39198806	     -4.24921982	     87.27502968	      0.22831659	      0.75955327	      0.70393338	      4.42062226	     -2.45045446	    -14.38630624	     10.36162267	      0.18084443	     24.70883816	     17.36070077	      0.00000000	      4.00119590	      1.24946192	      7.37953615	      9.59665889	      0.16749329	      8.76014580	    -16.67426001	      0.00000000	      0.06264500	     -0.23402406	     -0.51259222	      0.11633803	     -0.31125199	     -0.54462923	      0.10291947	     -0.56900609	     -0.54462923	      0.07159697	     -0.56900609	     -0.44851819	      0.05817215	     -0.47722185	     -0.41648118	      0.03579535	     -0.36250326	     -0.38444416	      0.44746696	     -2.64732692	     -2.85088413	      0.00000000	      0.00000000	     12.59893753	      1.85715104	      2.09480200	     27.22738916	    -28.14026445	     76.70172614	    104.37817215	     52.25061476	      2.58516144	     20.21954173	     16.48468496	    -35.64514414	     56.45575559	    108.49177326	     85.24582183	      5.48089011	     14.09706802
      0.03333333	     -2.25241100	     -4.38719494	     87.36215730	      0.22824771	      0.75865976	      0.70377419	      4.58878060	     -2.27880677	    -13.69692308	     10.40018135	      0.18151741	     25.32776302	     17.08855032	      0.00000000	      4.22959037	      1.02433331	      6.92576965	      9.86727608	      0.17221646	      9.75900687	    -16.00638116	      0.00000000	      0.06795068	     -0.21864838	     -0.57406727	      0.12619120	     -0.29080234	     -0.60994648	      0.11163617	     -0.53162166	     -0.60994648	      0.07766083	     -0.53162166	     -0.50230887	      0.06309900	     -0.44586777	     -0.46642966	      0.03882702	     -0.33868633	     -0.43055046	      0.48536490	     -2.47339415	     -3.19278996	      0.00000000	      0.00000000	     12.96036131	      1.93189146	      2.25106963	     27.49724521	    -27.94563937	     76.83534340	    104.58439539	     57.73763540	      3.63721982	     20.22347318	     15.08788408	    -35.41803358	     54.80519526	    108.75032165	     85.44856252	      6.15888453	     13.95531335
      0.05000000	     -2.16861105	     -4.42433571	     87.53371895	      0.22818120	      0.75811943	      0.70369799	      4.61481529	     -2.17969280	    -13.39842106	     10.41426810	      0.18176327	     25.71993558	     16.95541809	      0.00000000	      4.33806929	      0.84970749	      6.42688670	     10.03200951	      0.17509160	     10.78229365	    -15.04561525	      0.00000000	      0.06580188	     -0.21644245	     -0.59718553	      0.12220068	     -0.28786846	     -0.63450963	      0.10810592	     -0.52625817	     -0.63450963	      0.07520497	     -0.52625817	     -0.52253734	      0.06110363	     -0.44136944	     -0.48521324	      0.03759920	     -0.33526935	     -0.44788915	      0.47001628	     -2.44844028	     -3.32136676	      0.00000000	      0.00000000	     13.14126386	      2.02241305	      1.92199064	     27.20771862	    -27.85747512	     76.09160204	    104.83073985	     64.94591812	      4.97912657	     20.19716121	     14.44085522	    -35.22774312	     54.02803498	    108.88690292	     85.68332162	      6.56170711	     13.97401424
